<svg id="Layer_1" data-name="Layer 1" xmlns="http://www.w3.org/2000/svg" viewBox="0 0 81.09 79.67"><path d="M62.21,62.71a8.15,8.15,0,0,0-1.64-5.08l-3.31,2.59c1,2.91.43,5-2,7a13.92,13.92,0,0,1-3.49,2.12,27.36,27.36,0,0,1-14.62,1.49,18.39,18.39,0,0,1-8.36-3c-1.45-1-2.79-2.18-3.1-4a1,1,0,0,0-.74-.64c-1.23-.06-2.47,0-3.87,0V67a8.6,8.6,0,0,0,1.23,4.43,13.33,13.33,0,0,0,5.16,4.71,26.91,26.91,0,0,0,11.67,3.18c6.17.35,12.08-.45,17.4-3.59,3.66-2.16,5.9-5.13,5.66-9.38C62.14,65.12,62.21,63.91,62.21,62.71Z" transform="translate(-0.02 0.31)"/><path d="M80.35,56c-1.48,0-3,0-4.43,0-2.28,0-3.52-1.81-3.52-5V37.86c0-5.11,0-10.22,0-15.32s-2.68-9.44-6.27-9.93a58,58,0,0,0-6.33-.15c-.38,0-.48.24-.48.72,0,1.39,0,2.77,0,4.16,0,.69.23.81.65.81,1.64,0,3.28,0,4.91,0,2.31.07,3.46,1.77,3.46,5q0,14.13,0,28.28c0,4.93,2.43,9.32,5.81,10a46.29,46.29,0,0,0,6.94.38c0-1.75,0-3.26,0-4.76C81.12,56.27,81,56,80.35,56Z" transform="translate(-0.02 0.31)"/><path d="M24,54.56a18.41,18.41,0,0,0,8.25,5,30.41,30.41,0,0,0,14.27,1A22.68,22.68,0,0,0,58,55.79a9.62,9.62,0,0,0,3.84-6.44,54.62,54.62,0,0,0,0-8.09,8.35,8.35,0,0,0-2.56-5.14c0,2-.09,3.65,0,5.34C59.57,45.4,57.63,48,54.5,50a22.86,22.86,0,0,1-11.63,3.19c-5.16.13-10.12-.71-14.57-3.56-2.78-1.79-4.47-4.25-4.29-7.78.08-1.51,0-3,0-4.54,0-.28-.05-.55-.1-1.06A8.56,8.56,0,0,0,21.52,41a67.94,67.94,0,0,0-.21,7A9.59,9.59,0,0,0,24,54.56Z" transform="translate(-0.02 0.31)"/><path d="M29.5,13.25c-.64,0-1.28,0-2.07,0a4.74,4.74,0,0,0,.91,1.31,20.93,20.93,0,0,0,3.91,2.6c4.87,2.11,10,2.2,15.23,1.26a14.9,14.9,0,0,0,7.46-3.23,17.24,17.24,0,0,0,1.61-1.95c-.93,0-1.61,0-2.28,0-1.66-.11-2.55-1-2.55-2.44,0-1.17,0-2.34,0-3.51,0-.49-.2-.68-.73-.65s-1.14,0-1.7,0c-5.41,0-10.81,0-16.21,0-.78,0-1,.25-.94.88,0,1.07,0,2.14,0,3.2C32.14,12.26,31.25,13.13,29.5,13.25Z" transform="translate(-0.02 0.31)"/><path d="M26.55,11.66a5,5,0,0,0,1.54.07,1.31,1.31,0,0,0,1.36-1.54c-.06-1.88,0-3.76,0-5.63,0-.69.15-1,.92-1q11.3,0,22.61,0c.72,0,1,.24.95,1,0,1.88,0,3.76,0,5.63a1.32,1.32,0,0,0,1.31,1.58,5.62,5.62,0,0,0,1.16,0,1.33,1.33,0,0,0,1.37-1.53c-.06-2.4,0-4.81,0-7.21s-1-3.3-3.3-3.3c-4.26,0-8.52,0-12.77,0s-8.71,0-13.06,0a2.73,2.73,0,0,0-2.94,2.87c0,2.63,0,5.27,0,7.9A1.08,1.08,0,0,0,26.55,11.66Z" transform="translate(-0.02 0.31)"/><path d="M33.39,29.33a3.8,3.8,0,0,0-.07.53c0,6.09,0,12.19,0,18.28a1,1,0,0,0,.6.71c1.84.36,3.68.66,5.53.93,1.08.16,1.12.09,1.12-.91q0-8.76,0-17.53c0-.35,0-.7-.06-1Z" transform="translate(-0.02 0.31)"/><path d="M43.91,49.82c1.71-.28,3.41-.58,5.13-.82.74-.11,1-.45.94-1.18,0-4.46,0-8.93,0-13.39v-5.1c-2.23.28-4.3.56-6.38.8-.56.06-.53.41-.53.77,0,6.06,0,12.11,0,18.17C43.05,49.72,43.29,49.92,43.91,49.82Z" transform="translate(-0.02 0.31)"/><path d="M57.58,16.27C53.17,20.69,47.65,22,41.77,22s-11.46-1.3-16-5.62a12,12,0,0,1,0,2.48,3.63,3.63,0,0,0,1.21,3.46,13.79,13.79,0,0,0,2.46,2.06,20.25,20.25,0,0,0,8.72,2.89A25.47,25.47,0,0,0,52.74,25.1C56.86,23.08,58.34,20.39,57.58,16.27Z" transform="translate(-0.02 0.31)"/><path d="M30.88,27.56a13.45,13.45,0,0,1-4.56-3.07,3.56,3.56,0,0,1-.39-.72l-.27.23c0,.14,0,.27,0,.41,0,5.74,0,11.48,0,17.22a5.14,5.14,0,0,0,.73,2.4c1.13,1.92,3,2.89,5,3.77a3.37,3.37,0,0,0,.11-.4c0-6.36,0-12.73,0-19.1A1.09,1.09,0,0,0,30.88,27.56Z" transform="translate(-0.02 0.31)"/><path d="M51.89,48.38l.25.19c1.08-.66,2.21-1.25,3.23-2a5.63,5.63,0,0,0,2.37-5c-.08-5.11,0-10.23,0-15.35,0-.29,0-.58,0-1a3.36,3.36,0,0,0-.4.36,11.56,11.56,0,0,1-4.65,3.15,1,1,0,0,0-.75,1.16c0,4.73,0,9.46,0,14.18Z" transform="translate(-0.02 0.31)"/><path d="M40.72,66.71c-1.26,0-1.28-.06-1.28-1.38,0-3,0-3-3-3.09a1.74,1.74,0,0,0-.35.1V66c-.77-.27-1.35-.46-1.91-.68-2.39-.93-2.41-1-2.51-3.5,0-.31-.16-.78-.38-.88-1.35-.63-2.73-1.17-4.09-1.74-1.09,2,.22,5,1.94,6.28a14.81,14.81,0,0,0,2.37,1.54,21.51,21.51,0,0,0,8.95,2.13,23,23,0,0,0,11.29-2.11A8.78,8.78,0,0,0,56,63.35a4.54,4.54,0,0,0,.17-4.17,23.61,23.61,0,0,1-3.21,1.39c-1.19.31-1.43,1-1.33,2.07.05.49,0,1.22-.25,1.47a8.39,8.39,0,0,1-4.18,1.82V62.19l-3.24.39v1C43.89,66.82,43.89,66.82,40.72,66.71Z" transform="translate(-0.02 0.31)"/><path d="M0,53.65c0,2.15.06,4.09,0,6a2.94,2.94,0,0,0,1.68,3,10.06,10.06,0,0,0,10-.07c.6-.33,1.35-1.06,1.39-1.65.17-2.27.07-4.56.07-6.87C8.89,57.65,3.17,57.54,0,53.65Z" transform="translate(-0.02 0.31)"/><path d="M15,52.49h5.73c-.23-.72-.44-1.3-.6-1.89-.43-1.5-.42-1.5-2-1.5H13.19c.58,1.29,1,2.3,1.5,3.31C14.71,52.46,14.86,52.49,15,52.49Z" transform="translate(-0.02 0.31)"/><path d="M23.48,60.4a.85.85,0,0,0,.79-.9v-.1a3.17,3.17,0,0,0-.58-1.92c-.91-1-1.78-2.12-2.69-3.14a1.51,1.51,0,0,0-.9-.55c-1.61,0-3.22,0-4.82,0-.51,0-.73.19-.73.8,0,1.67,0,3.35,0,5,0,.68.26.84.79.82h8.15Z" transform="translate(-0.02 0.31)"/><path d="M2.59,53.29a9.39,9.39,0,0,0,8.24,0A2.23,2.23,0,0,0,12.24,51c0-3.14,0-6.29,0-9.43a2.31,2.31,0,0,0-1.43-2.3,9.36,9.36,0,0,0-8.32,0,2.21,2.21,0,0,0-1.36,2.24c.05,1.55,0,3.11,0,4.67s0,3.17,0,4.76A2.26,2.26,0,0,0,2.59,53.29ZM6.92,39.65c1.84,0,3.33.59,3.33,1.32s-1.49,1.32-3.33,1.32S3.6,41.7,3.6,41,5.09,39.65,6.92,39.65Z" transform="translate(-0.02 0.31)"/></svg>