<svg id="Layer_1" data-name="Layer 1" xmlns="http://www.w3.org/2000/svg" viewBox="0 0 10.4 89.09"><path d="M2.73,65.86c-.34,0-.42.29-.42.59s.08.63.47.61.42-.29.42-.58S3.13,65.84,2.73,65.86Z" transform="translate(-0.18 0.09)"/><path d="M2.79,64.51c.29,0,.4-.25.41-.51,0-.42,0-.84,0-1.27h0c0-.45,0-.9,0-1.36a.42.42,0,0,0-.46-.44.41.41,0,0,0-.39.42c0,.91,0,1.81,0,2.72A.41.41,0,0,0,2.79,64.51Z" transform="translate(-0.18 0.09)"/><path d="M10.07,55.68V45.13A.14.14,0,0,0,9.93,45H9.36V43.07h.48a.4.4,0,0,0,0-.8H9.36V41.7H10a.39.39,0,0,0,.4-.4.4.4,0,0,0-.4-.4h-.6V37.69H10a.4.4,0,1,0,0-.8h-.6V33.74c.55,0,1-.29,1-.65V29.7h0L9.22,27.75h.22c.55,0,1-.29,1-.65V23.71h0L9.2,21.58h.15c.55,0,1-.29,1-.65V17.54h0l-1.2-2.07h.3a1,1,0,0,0,1-1V9.31h0L8.83,5.08H9.4a1,1,0,0,0,1-1V.91a1,1,0,0,0-1-1h-8a1,1,0,0,0-1,1V4.08a1,1,0,0,0,1,1h.62L.46,9.31h0v5.16a1,1,0,0,0,1,1h.09L.37,17.54h0v3.39c0,.36.45.65,1,.65h.3L.46,23.71h0V27.1c0,.36.44.65,1,.65h0L.37,29.7h0v3.39c0,.36.45.65,1,.65h.09v3.15H1a.4.4,0,1,0,0,.8h.47V40.9H1a.4.4,0,0,0-.4.4.39.39,0,0,0,.4.4h.47v.57H.88a.4.4,0,1,0,0,.8h.59V45H.87a.15.15,0,0,0-.15.15V55.69a.57.57,0,0,0-.49.57v.34h0V57a.23.23,0,0,0,.23.23H.74V73.37H.42a.24.24,0,0,0-.23.25v.3s0,0,0,.08v.36A.61.61,0,0,0,.69,75V86.3a.15.15,0,0,0,.15.16h1v2.13a.42.42,0,0,0,.42.41h.61a.42.42,0,0,0,.41-.41V86.46H7.43v2.13a.42.42,0,0,0,.42.41h.6a.42.42,0,0,0,.42-.41V86.46h1A.16.16,0,0,0,10,86.3V75a.62.62,0,0,0,.49-.62V74h0s0,0,0,0v-.32a.24.24,0,0,0-.23-.25H10V57.18h.36a.22.22,0,0,0,.22-.23v-.27s0-.06,0-.08v-.34A.59.59,0,0,0,10.07,55.68ZM1.45,13.15V11a.46.46,0,0,1,.45-.46h.19a.46.46,0,0,1,.45.46v2.14a.45.45,0,0,1-.45.45H1.9A.45.45,0,0,1,1.45,13.15Zm-.09,6.91v-1.4c0-.17.21-.3.46-.3H2c.25,0,.46.13.46.3v1.4c0,.17-.21.3-.46.3H1.82C1.57,20.36,1.36,20.23,1.36,20.06Zm.09,6.17v-1.4c0-.17.2-.3.45-.3h.19c.25,0,.45.13.45.3v1.4c0,.17-.2.3-.45.3H1.9C1.65,26.53,1.45,26.4,1.45,26.23Zm-.09,6v-1.4c0-.17.21-.3.46-.3H2c.25,0,.46.13.46.3v1.4c0,.16-.21.3-.46.3H1.82C1.57,32.52,1.36,32.38,1.36,32.22Zm1.18,1.52H8.42v3.15H2.54Zm0,3.95H8.42V40.9H2.54Zm0,4H8.42v.57H2.54Zm0,1.37H8.42V45H2.54ZM6.26,65.58v6c0,1.33,0,1.35-1.37,1.35-.72,0-1.44,0-2.15,0s-.81-.22-.8-.84C2,70,2,68,2,65.92s0-4.19,0-6.28c0-.72.25-1,.94-.94a21.71,21.71,0,0,0,2.42,0c.79-.05,1,.38,1,1.06C6.25,61.7,6.26,63.64,6.26,65.58ZM1.68,77.91v-1a.43.43,0,0,1,.43-.43h0a.43.43,0,0,1,.43.43v1a.43.43,0,0,1-.43.43h0A.43.43,0,0,1,1.68,77.91Z" transform="translate(-0.18 0.09)"/></svg>