<svg id="Layer_1" data-name="Layer 1" xmlns="http://www.w3.org/2000/svg" viewBox="0 0 54.68 28.33"><defs><style>.cls-1{fill:#5836e5;}</style></defs><path class="cls-1" d="M54.68.67a6.54,6.54,0,0,0-5,2.48c-1,1.05-2,2-3.8,2s-2.76-.91-3.81-2S39.59.67,37,.67a6.54,6.54,0,0,0-5,2.48c-1,1.05-1.95,2-3.8,2s-2.75-.91-3.8-2S21.93.67,19.36.67s-3.87,1.32-5,2.48-1.95,2-3.8,2-2.75-.91-3.8-2A6.54,6.54,0,0,0,1.7.67a.84.84,0,0,0-.85.83.85.85,0,0,0,.85.84c1.85,0,2.76.91,3.8,2s2.46,2.47,5,2.47a6.53,6.53,0,0,0,5-2.47c1-1.06,2-2,3.8-2s2.75.91,3.8,2a6.53,6.53,0,0,0,5,2.47c2.57,0,3.87-1.31,5-2.47s2-2,3.8-2,2.75.91,3.8,2a6.53,6.53,0,0,0,5,2.47,6.51,6.51,0,0,0,5-2.47c1.05-1.06,2-2,3.81-2a.85.85,0,0,0,.85-.84A.84.84,0,0,0,54.68.67Z" transform="translate(-0.85 -0.67)"/><path class="cls-1" d="M54.68,11.78a6.54,6.54,0,0,0-5,2.48c-1,1.05-2,2-3.8,2s-2.76-.91-3.81-2-2.45-2.48-5-2.48a6.54,6.54,0,0,0-5,2.48c-1,1.05-1.95,2-3.8,2s-2.75-.91-3.8-2-2.46-2.48-5-2.48-3.87,1.32-5,2.48-1.95,2-3.8,2-2.75-.91-3.8-2a6.54,6.54,0,0,0-5-2.48.84.84,0,1,0,0,1.67c1.85,0,2.76.91,3.8,2s2.46,2.47,5,2.47a6.53,6.53,0,0,0,5-2.47c1-1.06,2-2,3.8-2s2.75.91,3.8,2a6.53,6.53,0,0,0,5,2.47c2.57,0,3.87-1.31,5-2.47s2-2,3.8-2,2.75.91,3.8,2a6.35,6.35,0,0,0,10,0c1.05-1.06,2-2,3.81-2a.84.84,0,1,0,0-1.67Z" transform="translate(-0.85 -0.67)"/><path class="cls-1" d="M54.68,22.89a6.53,6.53,0,0,0-5,2.47c-1,1.06-2,2-3.8,2s-2.76-.91-3.81-2a6.35,6.35,0,0,0-10,0c-1,1.06-1.95,2-3.8,2s-2.75-.91-3.8-2-2.46-2.47-5-2.47-3.87,1.31-5,2.47-1.95,2-3.8,2-2.75-.91-3.8-2a6.53,6.53,0,0,0-5-2.47.84.84,0,1,0,0,1.67c1.85,0,2.76.91,3.8,2S8,29,10.53,29a6.53,6.53,0,0,0,5-2.47c1-1.06,2-2,3.8-2s2.75.91,3.8,2a6.53,6.53,0,0,0,5,2.47c2.57,0,3.87-1.31,5-2.47s2-2,3.8-2,2.75.91,3.8,2a6.35,6.35,0,0,0,10,0c1.05-1.06,2-2,3.81-2a.84.84,0,1,0,0-1.67Z" transform="translate(-0.85 -0.67)"/></svg>